<?xml version="1.0" standalone="no"?>
<svg xmlns:xlink="http://www.w3.org/1999/xlink" id="wave" style="transform:rotate(180deg); transition: 0.3s" viewBox="0 0 1440 100" version="1.1" xmlns="http://www.w3.org/2000/svg"><defs><linearGradient id="sw-gradient-0" x1="0" x2="0" y1="1" y2="0"><stop stop-color="rgba(0, 0, 0, 1)" offset="0%"/><stop stop-color="rgba(0, 0, 0, 1)" offset="100%"/></linearGradient></defs><path style="transform:translate(0, 0px); opacity:1" fill="url(#sw-gradient-0)" d="M0,20L60,16.7C120,13,240,7,360,15C480,23,600,47,720,53.3C840,60,960,50,1080,40C1200,30,1320,20,1440,18.3C1560,17,1680,23,1800,21.7C1920,20,2040,10,2160,15C2280,20,2400,40,2520,41.7C2640,43,2760,27,2880,26.7C3000,27,3120,43,3240,53.3C3360,63,3480,67,3600,63.3C3720,60,3840,50,3960,53.3C4080,57,4200,73,4320,78.3C4440,83,4560,77,4680,66.7C4800,57,4920,43,5040,36.7C5160,30,5280,30,5400,30C5520,30,5640,30,5760,30C5880,30,6000,30,6120,38.3C6240,47,6360,63,6480,70C6600,77,6720,73,6840,66.7C6960,60,7080,50,7200,48.3C7320,47,7440,53,7560,55C7680,57,7800,53,7920,48.3C8040,43,8160,37,8280,31.7C8400,27,8520,23,8580,21.7L8640,20L8640,100L8580,100C8520,100,8400,100,8280,100C8160,100,8040,100,7920,100C7800,100,7680,100,7560,100C7440,100,7320,100,7200,100C7080,100,6960,100,6840,100C6720,100,6600,100,6480,100C6360,100,6240,100,6120,100C6000,100,5880,100,5760,100C5640,100,5520,100,5400,100C5280,100,5160,100,5040,100C4920,100,4800,100,4680,100C4560,100,4440,100,4320,100C4200,100,4080,100,3960,100C3840,100,3720,100,3600,100C3480,100,3360,100,3240,100C3120,100,3000,100,2880,100C2760,100,2640,100,2520,100C2400,100,2280,100,2160,100C2040,100,1920,100,1800,100C1680,100,1560,100,1440,100C1320,100,1200,100,1080,100C960,100,840,100,720,100C600,100,480,100,360,100C240,100,120,100,60,100L0,100Z"/></svg>